# AST/ASF file generated using VICON BodyLanguage
# -----------------------------------------------
:version 1.10
:name VICON
:units
  mass 1.0
  length 0.45
  angle deg
:documentation
   .ast/.asf automatically generated from VICON data using
   VICON BodyBuilder and BodyLanguage model FoxedUp or BRILLIANT.MOD
:root
   order TX TY TZ RX RY RZ
   axis XYZ
   position 0 0 0  
   orientation 0 0 0 
:bonedata
  begin
     id 1 
     name lhipjoint
     direction 0.521452 -0.77106 0.36545 
     length 2.0933 
     axis 0 0 0  XYZ
  end
  begin
     id 2 
     name lfemur
     direction 0.34202 -0.939693 0  
     length 6.83441  
     axis 0 0 20  XYZ
    dof rx ry rz
    limits (-160.0 20.0)
           (-70.0 70.0)
           (-60.0 70.0)
  end
  begin
     id 3 
     name ltibia
     direction 0.34202 -0.939693 0   
     length 7.28749   
     axis 0 0 20   XYZ
    dof rx
    limits (-10.0 170.0)
  end
  begin
     id 4 
     name lfoot
     direction 0.100608 -0.276418 0.955757   
     length 1.52195   
     axis -90 7.62852e-016 20   XYZ
    dof rx rz
    limits (-45.0 90.0)
           (-70.0 20.0)
  end
  begin
     id 5 
     name ltoes
     direction 1.53558e-011 -4.21907e-011 1   
     length 0.770459   
     axis -90 7.62852e-016 20   XYZ
    dof rx
    limits (-90.0 20.0)
  end
  begin
     id 6 
     name rhipjoint
     direction -0.488071 -0.788702 0.373812   
     length 2.04648  
     axis 0 0 0  XYZ 
  end
  begin
     id 7 
     name rfemur
     direction -0.34202 -0.939693 0   
     length 6.92583   
     axis 0 0 -20   XYZ
    dof rx ry rz
    limits (-160.0 20.0)
           (-70.0 70.0)
           (-70.0 60.0)
  end
  begin
     id 8 
     name rtibia
     direction -0.34202 -0.939693 0   
     length 7.41043   
     axis 0 0 -20   XYZ
    dof rx
    limits (-10.0 170.0)
 end
 begin
     id 9 
     name rfoot
     direction -0.0784433 -0.215521 0.973343   
     length 1.67708  
     axis -90 -7.62852e-016 -20   XYZ
    dof rx rz
    limits (-45.0 90.0)
           (-20.0 70.0)
  end
  begin
     id 10 
     name rtoes
     direction -1.53551e-011 -4.21842e-011 1   
     length 0.849787   
     axis -90 -7.62852e-016 -20   XYZ
    dof rx
    limits (-90.0 20.0)
  end
  begin
     id 11 
     name lowerback
     direction -0.0122332 0.997575 -0.0685192   
     length 1.98724   
     axis 0 0 0   XYZ
    dof rx ry rz
    limits (-20.0 45.0)
           (-30.0 30.0)
           (-30.0 30.0)
  end
  begin
     id 12 
     name upperback
     direction 0.0182347 0.999724 -0.0148421   
     length 1.99029   
     axis 0 0 0   XYZ
    dof rx ry rz
    limits (-20.0 45.0)
           (-30.0 30.0)
           (-30.0 30.0)
  end
  begin
     id 13 
     name thorax
     direction 0.0242908 0.99956 0.0170184   
     length 1.99573   
     axis 0 0 0   XYZ
    dof rx ry rz
    limits (-20.0 45.0)
           (-30.0 30.0)
           (-30.0 30.0)
  end
  begin
     id 14 
     name lowerneck
     direction 0.0654488 0.985533 0.156338   
     length 1.4285   
     axis 0 0 0   XYZ
    dof rx ry rz
    limits (-20.0 45.0)
           (-30.0 30.0)
           (-30.0 30.0)
  end
  begin
     id 15 
     name upperneck
     direction -0.02953 0.998556 -0.0448842   
     length 1.44709   
     axis 0 0 0   XYZ
    dof rx ry rz
    limits (-20.0 45.0)
           (-30.0 30.0)
           (-30.0 30.0)
  end
  begin
     id 16
     name head
     direction -0.0155588 0.999386 -0.0314063  
     length 1.44689  
     axis 0 0 0   XYZ
    dof rx ry rz
    limits (-20.0 45.0)
           (-30.0 30.0)
           (-30.0 30.0)
  end
  begin
     id 17 
     name lclavicle
     direction 0.968229 0.236071 -0.0824755  
     length 3.60593  
     axis 0 0 0   XYZ
    dof ry rz
    limits (-20.0 10.0)
           (0.0 20.0)
  end
  begin
     id 18 
     name lhumerus
     direction 1 -4.48968e-011 7.8138e-029   
     length 5.06035   
     axis 180 -30 -90   XYZ
    dof rx ry rz
    limits (-60.0 90.0)
           (-90.0 90.0)
           (-90.0 90.0)
  end
  begin
     id 19
     name lradius
     direction 1 -4.48967e-011 9.02887e-028   
     length 3.1478   
     axis 180 -30 -90   XYZ
    dof rx
    limits (-10.0 170.0)
  end
  begin
     id 20
     name lwrist
     direction 1 -4.48961e-011 7.20928e-028   
     length 1.5739   
     axis -5.52449e-016 90 90   XYZ
    dof ry
    limits (-180.0 0.0)
 end
  begin
     id 21 
     name lhand
     direction 1 -4.48972e-011 1.44186e-027   
     length 0.606747   
     axis -9.20027e-016 90 90   XYZ
    dof rx rz
    limits (-90.0 90.0)
           (-45.0 45.0)
  end
  begin
     id 22 
     name lfingers
     direction 1 -4.48943e-011 2.88371e-027   
     length 0.489175   
     axis -1.84005e-015 90 90   XYZ
    dof rx
    limits (0.0 90.0)
  end
  begin
     id 23
     name lthumb
     direction 0.707107 -6.34917e-011 0.707107   
     length 0.70236   
     axis -90 45 2.85299e-015   XYZ
    dof rx rz
    limits (-45.0 45.0)
           (-45.0 45.0)
  end
  begin
     id 24 
     name rclavicle
     direction -0.978165 0.207816 0.0022268   
     length 3.35425  
     axis 0 0 0   XYZ 
    dof ry rz
    limits (-10.0 20.0)
           (-20.0 0.0)
  end
  begin
     id 25 
     name rhumerus
     direction -1 -4.48964e-011 -4.02159e-027  
     length 5.12273   
     axis 180 30 90   XYZ
    dof rx ry rz
    limits (-90.0 60.0)
           (-90.0 90.0)
           (-90.0 90.0)
  end
  begin
     id 26 
     name rradius
     direction -1 -4.48966e-011 1.62746e-027   
     length 3.422   
     axis 180 30 90   XYZ
    dof rx
    limits (-10.0 170.0)
  end
  begin
     id 27 
     name rwrist
     direction -1 -4.4896e-011 7.20928e-028   
     length 1.711   
     axis -5.52449e-016 -90 -90   XYZ
    dof ry
    limits (-180.0 0.0)
  end
  begin
     id 28
     name rhand
     direction -1 -4.48979e-011 1.44186e-027   
     length 0.704599   
     axis -9.20027e-016 -90 -90   XYZ
    dof rx rz
    limits (-90.0 90.0)
           (-45.0 45.0)
  end
  begin
     id 29
     name rfingers
     direction -1 -4.48962e-011 2.88371e-027   
     length 0.568066   
     axis -1.84005e-015 -90 -90   XYZ
    dof rx
    limits (0.0 90.0)
  end
  begin
     id 30
     name rthumb
     direction -0.707107 -6.34949e-011 0.707107   
     length 0.815633   
     axis -90 -45 -2.85299e-015   XYZ
    dof rx rz
    limits (-45.0 45.0)
           (-45.0 45.0)
  end
:hierarchy
  begin
    root lhipjoint rhipjoint lowerback
    lhipjoint lfemur
    lfemur ltibia
    ltibia lfoot
    lfoot ltoes
    rhipjoint rfemur
    rfemur rtibia
    rtibia rfoot
    rfoot rtoes
    lowerback upperback
    upperback thorax
    thorax lowerneck lclavicle rclavicle
    lowerneck upperneck
    upperneck head
    lclavicle lhumerus
    lhumerus lradius
    lradius lwrist
    lwrist lhand lthumb
    lhand lfingers
    rclavicle rhumerus
    rhumerus rradius
    rradius rwrist
    rwrist rhand rthumb
    rhand rfingers
  end

#!OML:ASF E:\id_vita\Project 1\Capture day 1\Session 1\Male1.ASF
:FULLY-SPECIFIED
:DEGREES
744
root -33.7844 15.913 -1.01943 443.034 91.016 438.319
lowerback -5.70999 1.08528 -1.4432
upperback -3.4203 1.59146 -0.297643
thorax -0.34775 0.847946 0.586842
lowerneck 3.36009 14.8698 18.8208
upperneck 6.32325 20.5149 -4.0479
head 3.66462 10.5818 -3.13337
rclavicle 4.89507e-015 3.97569e-016
rhumerus -35.6073 -24.626 -76.4193
rradius 16.8053
rwrist 17.4792
rhand -20.7513 34.9427
rfingers 7.12502
rthumb 5.6145 5.0371
lclavicle 4.89507e-015 3.97569e-016
lhumerus -26.3376 2.82529 88.0568
lradius 11.9722
lwrist -8.98219
lhand -10.3139 46.3683
lfingers 7.12502
lthumb 15.6813 75.7529
rfemur -7.14298 3.27481 16.2804
rtibia 21.3553
rfoot -13.3356 -17.5951
rtoes -15.0147
lfemur -9.4135 -2.22559 -16.7117
ltibia 28.1363
lfoot -22.0615 16.4651
ltoes -1.43795
745
root -33.7777 15.9193 -1.02664 454.586 90.9661 449.876
lowerback -5.73698 1.16748 -1.45166
upperback -3.42876 1.70214 -0.331222
thorax -0.343019 0.903307 0.563377
lowerneck 3.30386 14.8458 18.8624
upperneck 6.36952 20.4702 -3.99375
head 3.68138 10.5629 -3.12023
rclavicle 3.85394e-014 -9.14409e-015
rhumerus -35.7509 -25.2677 -76.0637
rradius 16.6913
rwrist 18.0029
rhand -20.2713 34.9861
rfingers 7.12502
rthumb 6.07789 5.09326
lclavicle 3.85394e-014 -9.14409e-015
lhumerus -26.3939 2.3712 88.1992
lradius 12.0873
lwrist -8.60922
lhand -10.3169 46.1944
lfingers 7.12502
lthumb 15.6785 75.5792
rfemur -7.16809 3.25804 16.2263
rtibia 21.4229
rfoot -13.5599 -17.4222
rtoes -14.9181
lfemur -9.24442 -2.33996 -16.8223
ltibia 28.033
lfoot -21.9636 16.7323
ltoes -1.9283
746
root -33.8034 15.9267 -1.01635 414.855 91.2271 409.825
lowerback -5.7068 0.775223 -1.37547
upperback -3.51312 1.17925 -0.468829
thorax -0.431394 0.641919 0.350879
lowerneck 3.42208 14.9428 18.9338
upperneck 6.1472 20.6199 -4.00396
head 3.61754 10.6305 -3.13596
rclavicle -1.15544e-014 -3.97569e-016
rhumerus -35.5198 -25.1987 -76.6009
rradius 16.6012
rwrist 18.152
rhand -20.6599 34.8319
rfingers 7.12502
rthumb 5.7027 4.92865
lclavicle -1.15544e-014 -3.97569e-016
lhumerus -26.2803 2.46017 87.8105
lradius 12.1521
lwrist -8.53868
lhand -10.233 46.0046
lfingers 7.12502
lthumb 15.7593 75.383
rfemur -7.37586 3.62302 16.3328
rtibia 21.3387
rfoot -13.4322 -18.383
rtoes -14.0851
lfemur -9.91626 -1.98627 -16.6463
ltibia 28.0367
lfoot -22.0354 15.6953
ltoes -1.19405
747
root -33.8047 15.9349 -1.02447 409.8 91.3715 404.769
lowerback -5.66393 0.685657 -1.2537
upperback -3.52188 1.05376 -0.488141
thorax -0.459514 0.577338 0.255672
lowerneck 3.53518 14.9595 18.8883
upperneck 6.0403 20.6588 -3.94088
head 3.55956 10.6476 -3.12425
rclavicle -4.32357e-015 -4.77083e-015
rhumerus -35.4773 -24.6693 -76.9698
rradius 16.647
rwrist 17.7585
rhand -20.9397 34.7767
rfingers 7.12502
rthumb 5.43259 4.86632
lclavicle -4.32357e-015 -4.77083e-015
lhumerus -26.2045 3.01762 87.559
lradius 12.006
lwrist -9.13213
lhand -10.1394 45.9398
lfingers 7.12502
lthumb 15.8494 75.3111
rfemur -7.32594 2.97015 16.3555
rtibia 21.2222
rfoot -13.3951 -18.0123
rtoes -14.5895
lfemur -10.0168 -2.20464 -16.6361
ltibia 28.0734
lfoot -22.1181 15.7607
ltoes 0.0316209
748
root -33.8226 15.9301 -1.01475 400.039 91.7701 394.855
lowerback -5.48839 0.549932 -1.58659
upperback -3.6463 0.886219 -0.321271
thorax -0.690905 0.50392 0.601332
lowerneck 3.51137 14.9092 18.7966
upperneck 6.05206 20.5832 -3.90827
head 3.54646 10.6092 -3.11037
rclavicle 5.54112e-015 -7.95139e-016
rhumerus -35.5899 -24.3937 -76.8742
rradius 16.7147
rwrist 17.4903
rhand -20.992 34.9485
rfingers 7.12502
rthumb 5.38206 5.03684
lclavicle 5.54112e-015 -7.95139e-016
lhumerus -26.1764 3.43936 87.5951
lradius 11.9056
lwrist -9.78037
lhand -10.1651 46.0491
lfingers 7.12502
lthumb 15.8246 75.4224
rfemur -7.40839 3.2314 16.4806
rtibia 21.0444
rfoot -12.871 -18.7313
rtoes -15.0127
lfemur -10.4059 -2.14702 -16.4602
ltibia 28.1731
lfoot -22.1312 15.2975
ltoes -0.278542
749
root -33.8168 15.9225 -1.02044 410.08 91.6524 404.973
lowerback -5.5143 0.610952 -1.36263
upperback -3.59989 0.956705 -0.2926
thorax -0.626877 0.534214 0.509433
lowerneck 3.62474 14.9025 18.8368
upperneck 5.91732 20.6065 -4.11932
head 3.5158 10.6135 -3.18742
rclavicle -1.00635e-014 -3.97569e-015
rhumerus -35.6119 -24.3643 -76.9047
rradius 16.7058
rwrist 17.6337
rhand -21.1939 34.8848
rfingers 7.12502
rthumb 5.18717 4.96827
lclavicle -1.00635e-014 -3.97569e-015
lhumerus -26.1836 3.89884 87.3742
lradius 11.9139
lwrist -10.2379
lhand -10.1331 46.1384
lfingers 7.12502
lthumb 15.8554 75.5092
rfemur -7.35421 3.61467 16.6067
rtibia 20.9931
rfoot -12.5272 -18.9148
rtoes -15.7845
lfemur -10.2488 -2.43711 -16.3771
ltibia 28.2134
lfoot -22.0158 15.8414
ltoes -0.0982539
750
root -33.8131 15.9256 -1.02356 412.822 91.6408 407.698
lowerback -5.60202 0.580218 -1.28627
upperback -3.5718 0.913613 -0.275765
thorax -0.547429 0.510765 0.483344
lowerneck 3.74634 14.8616 19.0506
upperneck 5.82539 20.6073 -4.62881
head 3.54389 10.6067 -3.3677
rclavicle 2.34566e-014 -8.74653e-015
rhumerus -35.6021 -24.4906 -76.8541
rradius 16.6644
rwrist 17.928
rhand -21.4217 34.7556
rfingers 7.12502
rthumb 4.96715 4.83379
lclavicle 2.34566e-014 -8.74653e-015
lhumerus -26.1385 4.44325 87.1267
lradius 11.8384
lwrist -10.706
lhand -9.92986 45.9002
lfingers 7.12502
lthumb 16.0512 75.2553
rfemur -7.31688 3.80956 16.6594
rtibia 20.9454
rfoot -12.4915 -18.9996
rtoes -15.4751
lfemur -10.2737 -2.06062 -16.3168
ltibia 28.2532
lfoot -22.2085 15.4813
ltoes -0.391056
751
root -33.8083 15.9269 -1.02697 412.763 91.5269 407.67
lowerback -5.67182 0.534767 -1.19338
upperback -3.50202 0.849227 -0.391646
thorax -0.43247 0.474355 0.310754
lowerneck 3.74167 14.9822 18.9006
upperneck 5.74502 20.7452 -4.33472
head 3.4882 10.6736 -3.25865
rclavicle 5.81445e-015 -2.78299e-015
rhumerus -35.5305 -24.6041 -77.0188
rradius 16.6188
rwrist 18.1214
rhand -21.5419 34.7588
rfingers 7.12502
rthumb 4.85107 4.83429
lclavicle 5.81445e-015 -2.78299e-015
lhumerus -26.1014 4.35449 86.9769
lradius 11.9002
lwrist -10.4649
lhand -9.8881 45.7618
lfingers 7.12502
lthumb 16.0914 75.1137
rfemur -7.33463 3.5392 16.5401
rtibia 21.0832
rfoot -12.8097 -18.6946
rtoes -15.0483
lfemur -10.1661 -1.78077 -16.4067
ltibia 28.1446
lfoot -22.3947 15.2038
ltoes -0.897856
752
root -33.7984 15.9239 -1.03478 415.188 91.2831 410.196
lowerback -5.59491 0.689701 -1.77469
upperback -3.53216 1.07973 -0.161545
thorax -0.525476 0.601686 0.882618
lowerneck 3.59782 14.8086 19.0719
upperneck 6.02748 20.5202 -4.78312
head 3.63885 10.5663 -3.40043
rclavicle -7.72775e-015 2.78299e-015
rhumerus -35.7617 -24.2354 -76.6017
rradius 16.7652
rwrist 17.5219
rhand -21.4126 34.7941
rfingers 7.12502
rthumb 4.97593 4.87257
lclavicle -7.72775e-015 2.78299e-015
lhumerus -26.2137 4.18694 87.5701
lradius 11.9155
lwrist -10.3959
lhand -10.1459 45.9665
lfingers 7.12502
lthumb 15.8432 75.3383
rfemur -7.27078 3.24101 16.3115
rtibia 21.169
rfoot -13.1326 -18.2404
rtoes -14.927
lfemur -9.93586 -1.87724 -16.639
ltibia 28.085
lfoot -22.3897 15.5022
ltoes -1.37073
753
root -33.8084 15.9359 -1.0321 401.786 91.3867 396.716
lowerback -5.44473 0.533776 -1.86712
upperback -3.61622 0.874588 -0.298612
thorax -0.688928 0.50221 0.780882
lowerneck 3.67454 14.8247 19.2095
upperneck 5.9863 20.558 -4.75426
head 3.62876 10.5884 -3.41157
rclavicle -6.18717e-015 3.97569e-016
rhumerus -35.796 -24.1583 -76.8395
rradius 16.7317
rwrist 17.3895
rhand -21.4995 34.8476
rfingers 7.12502
rthumb 4.89207 4.92407
lclavicle -6.18717e-015 3.97569e-016
lhumerus -26.2695 3.45351 87.5981
lradius 12.0655
lwrist -9.60384
lhand -10.5034 46.3026
lfingers 7.12502
lthumb 15.4988 75.7014
rfemur -7.35643 3.14601 16.2069
rtibia 21.4062
rfoot -13.5293 -18.2787
rtoes -13.8935
lfemur -10.0444 -1.45486 -16.7296
ltibia 27.906
lfoot -22.2614 14.8694
ltoes -1.64317
754
root -33.7977 15.9293 -1.04172 424.589 91.3787 419.393
lowerback -5.68324 0.787459 -1.84714
upperback -3.66867 1.21839 -0.0149149
thorax -0.625931 0.67773 1.08043
lowerneck 3.5644 14.6944 19.2056
upperneck 6.10032 20.3687 -4.83777
head 3.66872 10.4959 -3.43987
rclavicle 1.35919e-014 3.18055e-015
rhumerus -35.9216 -24.1165 -76.4296
rradius 16.7152
rwrist 17.106
rhand -21.9115 34.7907
rfingers 7.12502
rthumb 4.49419 4.85841
lclavicle 1.35919e-014 3.18055e-015
lhumerus -26.3558 3.17246 88.0699
lradius 12.1377
lwrist -9.5346
lhand -10.6015 46.3449
lfingers 7.12502
lthumb 15.4043 75.7509
rfemur -7.63954 3.23915 16.4781
rtibia 21.4579
rfoot -13.3133 -18.0795
rtoes -14.704
lfemur -10.0747 -1.49098 -16.432
ltibia 27.9187
lfoot -22.1536 15.334
ltoes -1.59943
755
root -33.783 15.93 -1.04938 420.644 90.8303 415.734
lowerback -5.54345 1.0507 -1.84808
upperback -3.57112 1.56529 -0.654838
thorax -0.596117 0.842883 0.439523
lowerneck 3.39447 14.5612 19.8427
upperneck 6.07635 20.1604 -4.70504
head 3.71165 10.4062 -3.47995
rclavicle -1.12313e-014 1.07344e-014
rhumerus -36.3502 -25.6509 -76.3498
rradius 16.6533
rwrist 17.7867
rhand -22.3628 34.7436
rfingers 7.12502
rthumb 4.05839 4.80247
lclavicle -1.12313e-014 1.07344e-014
lhumerus -26.383 1.69445 87.8641
lradius 12.3301
lwrist -8.90444
lhand -10.2335 46.3791
lfingers 7.12502
lthumb 15.7588 75.7575
rfemur -7.26215 3.00658 15.8799
rtibia 21.473
rfoot -13.8041 -17.507
rtoes -13.6306
lfemur -9.65808 -1.54422 -17.0688
ltibia 27.9263
lfoot -22.243 15.5871
ltoes -1.75559
756
root -33.7919 15.9155 -1.04645 420.209 90.9561 415.38
lowerback -5.37223 0.956939 -2.12517
upperback -3.56148 1.44537 -0.34501
thorax -0.694295 0.790211 0.903076
lowerneck 3.69074 14.6143 19.8051
upperneck 5.90591 20.32 -5.24972
head 3.68471 10.4712 -3.64612
rclavicle -1.09332e-014 2.78299e-015
rhumerus -36.2764 -25.2869 -76.1304
rradius 16.6657
rwrist 17.6697
rhand -21.6422 35.0971
rfingers 7.12502
rthumb 4.75428 5.17041
lclavicle -1.09332e-014 2.78299e-015
lhumerus -26.3563 2.21308 88.0721
lradius 12.2407
lwrist -9.13629
lhand -10.0802 46.393
lfingers 7.12502
lthumb 15.9064 75.7598
rfemur -7.23144 3.65304 16.0241
rtibia 21.4484
rfoot -13.0364 -18.402
rtoes -15.1958
lfemur -9.68536 -1.18189 -16.9077
ltibia 28.0123
lfoot -22.4291 15.1832
ltoes -2.42118
757
root -33.7791 15.9136 -1.05885 435.428 91.059 430.573
lowerback -5.57524 1.01612 -1.486
upperback -3.53221 1.50199 -0.540025
thorax -0.53042 0.804924 0.352981
lowerneck 3.65879 14.6069 19.8114
upperneck 5.79111 20.2796 -4.89134
head 3.61181 10.4531 -3.55182
rclavicle -7.8023e-015 -5.56597e-015
rhumerus -36.3071 -25.3985 -76.4317
rradius 16.6285
rwrist 17.8124
rhand -21.2352 35.0099
rfingers 7.12502
rthumb 5.14727 5.09237
lclavicle -7.8023e-015 -5.56597e-015
lhumerus -26.363 1.56117 87.9139
lradius 12.3174
lwrist -8.55159
lhand -10.1444 46.3134
lfingers 7.12502
lthumb 15.8446 75.6851
rfemur -7.2654 3.90257 16.1924
rtibia 21.4749
rfoot -12.7737 -18.5145
rtoes -15.8106
lfemur -9.62444 -1.37733 -16.7731
ltibia 28.0095
lfoot -22.4508 15.564
ltoes -1.84689
758
root -33.7684 15.9229 -1.06617 451.44 91.1894 446.691
lowerback -5.64173 1.05314 -1.543
upperback -3.45909 1.55211 -0.255643
thorax -0.428703 0.831142 0.681572
lowerneck 3.67595 14.6831 19.554
upperneck 5.85396 20.3796 -4.89017
head 3.61523 10.4996 -3.51176
rclavicle 6.06293e-015 5.96354e-015
rhumerus -36.2328 -25.2678 -76.0702
rradius 16.5083
rwrist 18.0987
rhand -21.1318 35.0211
rfingers 7.12502
rthumb 5.24713 5.10602
lclavicle 6.06293e-015 5.96354e-015
lhumerus -26.3696 2.03738 88.0933
lradius 12.3378
lwrist -8.71786
lhand -9.95192 46.1212
lfingers 7.12502
lthumb 16.0299 75.478
rfemur -7.02679 3.7778 16.3623
rtibia 21.3387
rfoot -13.2263 -17.88
rtoes -14.4194
lfemur -9.45275 -1.48435 -16.6538
ltibia 28.1246
lfoot -22.5095 15.9545
ltoes -1.59524
